<svg width="326" height="27" viewBox="0 0 326 27" fill="none" xmlns="http://www.w3.org/2000/svg">
<path d="M14.12 0.704842H2.72L0.26 20.7148H5.33L6.29 12.9148H12.05L12.59 8.50484H6.83L7.25 5.11484H13.58L14.12 0.704842ZM34.239 0.704842H29.169L27.789 12.1048C27.399 15.2548 26.409 16.3048 23.889 16.3048C21.669 16.3048 20.559 15.2548 20.559 13.1548C20.559 12.5548 20.589 12.0748 20.649 11.5048L21.969 0.704842H16.929L15.609 11.5048C15.459 12.6448 15.369 13.7248 15.369 14.2648C15.369 18.5248 18.519 21.1048 23.709 21.1048C26.649 21.1048 29.109 20.2948 30.549 18.8548C31.839 17.5948 32.349 16.0648 32.829 12.2848L34.239 0.704842ZM45.3629 5.11484H49.5629L50.1029 0.704842H36.5429L36.0029 5.11484H40.2929L38.3729 20.7148H43.4429L45.3629 5.11484ZM69.6882 0.704842H64.6182L63.2382 12.1048C62.8482 15.2548 61.8582 16.3048 59.3382 16.3048C57.1182 16.3048 56.0082 15.2548 56.0082 13.1548C56.0082 12.5548 56.0382 12.0748 56.0982 11.5048L57.4182 0.704842H52.3782L51.0582 11.5048C50.9082 12.6448 50.8182 13.7248 50.8182 14.2648C50.8182 18.5248 53.9682 21.1048 59.1582 21.1048C62.0982 21.1048 64.5582 20.2948 65.9982 18.8548C67.2882 17.5948 67.7982 16.0648 68.2782 12.2848L69.6882 0.704842ZM83.2121 12.9448C86.0921 11.9248 87.4721 9.97484 87.4721 6.91484C87.4721 2.68484 85.2221 0.704842 80.3921 0.704842H73.8821L71.4221 20.7148H76.4921L77.4521 12.7648L82.2521 20.7148H88.1321L83.2121 12.9448ZM78.4421 4.69484H79.4021C81.5321 4.69484 82.2821 5.29484 82.2821 7.03484C82.2821 8.95484 81.1421 9.85484 78.7121 9.85484H77.8121L78.4421 4.69484ZM103.67 0.704842H92.72L90.26 20.7148H101.45L101.99 16.3048H95.87L96.29 12.9748H101.99L102.53 8.56484H96.83L97.25 5.11484H103.13L103.67 0.704842ZM115.652 9.58484L115.172 13.5748H119.792C119.372 15.4648 117.662 16.6948 115.472 16.6948C112.382 16.6948 110.192 14.3848 110.192 11.1148C110.192 7.45484 112.622 4.60484 115.742 4.60484C117.992 4.60484 119.492 5.62484 120.512 7.87484L124.892 6.16484C123.242 2.26484 120.272 0.314844 115.922 0.314844C109.592 0.314844 105.002 4.93484 105.002 11.2948C105.002 17.0548 109.112 21.1048 114.902 21.1048C119.312 21.1048 122.852 18.8548 124.292 15.1348C124.922 13.4548 125.222 11.7748 125.252 9.58484H115.652ZM138.961 0.284842C132.301 0.284842 127.621 4.69484 127.621 10.9648C127.621 17.0248 132.031 21.1048 138.541 21.1048C144.991 21.1048 149.401 16.6348 149.401 10.1248C149.401 4.27484 145.171 0.284842 138.961 0.284842ZM138.691 5.08484C142.021 5.08484 144.211 7.30484 144.211 10.6648C144.211 13.9648 141.811 16.3048 138.421 16.3048C135.061 16.3048 132.811 14.0848 132.811 10.7848C132.811 7.51484 135.301 5.08484 138.691 5.08484ZM172.071 0.704842H166.401L161.271 10.7548C160.791 11.6548 160.461 12.4348 160.131 13.4848C159.981 11.8648 159.891 11.3248 159.531 9.82484L157.221 0.704842H151.821L157.071 20.7148H161.331L172.071 0.704842ZM195.495 20.7148L186.405 10.1848L194.745 0.704842H191.625L182.775 11.0248V0.704842H180.285V20.7148H182.775V13.9948L184.785 11.7148L192.375 20.7148H195.495ZM210.243 20.7148V10.5448C210.243 7.39484 208.653 5.86484 205.653 5.86484C203.463 5.86484 201.483 7.09484 200.463 8.32484V6.22484H198.213V20.7148H200.463V10.1248C201.333 8.95484 202.983 7.87484 204.753 7.87484C206.703 7.87484 208.023 8.65484 208.023 11.2348V20.7148H210.243ZM221.096 21.0748C225.506 21.0748 228.266 17.6548 228.266 13.4548C228.266 9.25484 225.506 5.86484 221.096 5.86484C216.686 5.86484 213.926 9.25484 213.926 13.4548C213.926 17.6548 216.686 21.0748 221.096 21.0748ZM221.096 19.0648C218.006 19.0648 216.296 16.4248 216.296 13.4548C216.296 10.5148 218.006 7.87484 221.096 7.87484C224.186 7.87484 225.896 10.5148 225.896 13.4548C225.896 16.4248 224.186 19.0648 221.096 19.0648ZM246.754 20.7148L251.374 6.22484H249.004L245.464 17.7748L241.684 6.22484H239.734L235.924 17.7748L232.384 6.22484H230.044L234.664 20.7148H236.914L240.694 9.07484L244.474 20.7148H246.754ZM256.215 20.7148V0.704842H253.965V20.7148H256.215ZM267.273 21.0748C269.613 21.0748 271.563 20.2648 273.033 18.8248L271.953 17.3548C270.783 18.5548 269.133 19.2148 267.453 19.2148C264.333 19.2148 262.443 16.9348 262.263 14.2048H273.963V13.6348C273.963 9.28484 271.383 5.86484 267.003 5.86484C262.863 5.86484 259.863 9.25484 259.863 13.4548C259.863 17.9848 262.953 21.0748 267.273 21.0748ZM271.743 12.5248H262.233C262.353 10.3348 263.883 7.72484 266.973 7.72484C270.273 7.72484 271.713 10.3948 271.743 12.5248ZM290.357 20.7148V0.704842H288.107V8.41484C286.937 6.82484 285.167 5.86484 283.217 5.86484C279.437 5.86484 276.767 8.83484 276.767 13.4848C276.767 18.1948 279.437 21.0748 283.217 21.0748C285.257 21.0748 287.027 20.0248 288.107 18.5548V20.7148H290.357ZM283.787 19.0648C280.847 19.0648 279.107 16.6948 279.107 13.4848C279.107 10.2748 280.847 7.87484 283.787 7.87484C285.557 7.87484 287.327 8.95484 288.107 10.2148V16.7548C287.327 18.0148 285.557 19.0648 283.787 19.0648ZM300.683 26.5948C304.223 26.5948 307.613 25.0948 307.613 20.5048V6.22484H305.363V8.41484C304.193 6.82484 302.423 5.86484 300.473 5.86484C296.663 5.86484 294.023 8.74484 294.023 13.3948C294.023 18.0748 296.693 20.8948 300.473 20.8948C302.513 20.8948 304.283 19.7848 305.363 18.3148V20.5048C305.363 23.5648 303.083 24.7348 300.683 24.7348C298.613 24.7348 297.173 24.1948 295.973 22.7848L294.833 24.4048C296.573 26.1148 298.253 26.5948 300.683 26.5948ZM301.043 18.8848C298.103 18.8848 296.363 16.5748 296.363 13.3948C296.363 10.1848 298.103 7.87484 301.043 7.87484C302.813 7.87484 304.553 8.95484 305.363 10.1848V16.5448C304.553 17.8048 302.813 18.8848 301.043 18.8848ZM318.689 21.0748C321.029 21.0748 322.979 20.2648 324.449 18.8248L323.369 17.3548C322.199 18.5548 320.549 19.2148 318.869 19.2148C315.749 19.2148 313.859 16.9348 313.679 14.2048H325.379V13.6348C325.379 9.28484 322.799 5.86484 318.419 5.86484C314.279 5.86484 311.279 9.25484 311.279 13.4548C311.279 17.9848 314.369 21.0748 318.689 21.0748ZM323.159 12.5248H313.649C313.769 10.3348 315.299 7.72484 318.389 7.72484C321.689 7.72484 323.129 10.3948 323.159 12.5248Z" fill="#150810"/>
</svg>
